Black Swan (2010) 1080p  DD5.1 DTS NL SUBS



Vanaf 3 februari te zien in 23 bioscopen

Verenigde Staten
Drama / Thriller
103 minuten

geregisseerd door Darren Aronofsky
met Natalie Portman, Mila Kunis en Vincent Cassel

Balletdanseres Nina (Natalie Portman) maakt deel uit van een balletgezelschap 
waarbinnen hevige concurentie heerst. De belangrijkste danseres van dat moment, 
Beth (Winona Ryder), staat op het punt om te vertrekken en iedereen wil haar 
plaats innemen, te meer daar zij tot dan toe een hoofdrol vertolkte in het 
populaire Swan Lake ballet van Tsjaikovski. Volgens artistiek leider Yevna 
(Vincent Cassel) heeft ze zeker talent, maar mist ze het één en ander op 
het mentale vlak. Ook moet ze afrekenen met haar speelzieke rivale Lily 
(Mila Kunis) wil zij een kans maken om de hoofdrol te gaan vertolken.


  
http://www.moviemeter.nl/film/68071
--------------------------------------------------------------------------------
PLOT

A ballet dancer wins the lead in "Swan Lake" and is perfect for the role 
of the delicate White Swan - Princess Odette - but slowly loses her mind 
as she becomes more and more like Odile the Black Swan, daughter 
of an evil magician. 
  
http://www.imdb.com/title/tt0947798/

Source .........: Black Swan, 2010CHD
Beeld...........: 1080 (1920 800)
Container.......: x264 (MKV)
Subs,...........: Dutch vertaald door badgast, Suurtj & Tokke
Audio...........: DD5.1 & DTS --- ACS Toegevoegd
Controle........: Tokke

Media INFO

General
Complete name                    : BLACK SWAN (2010) 1080P DD51 & DTS NL SUBS\BlackSwan.2010.x264.1080.BluRay.AC3-DTS.NLSUBS-SRT\BlackSwan.2010.x264.1080.BluRay.AC3-DTS.NLSUBS-SRT.mkv
Format                           : Matroska
File size                        : 14.3 GiB
Duration                         : 1h 48mn
Overall bit rate                 : 19.0 Mbps
Encoded date                     : UTC 2011-03-05 02:41:50
Writing application              : mkvmerge v2.3.0 ('Freak U') built on Sep  8 2008 18:32:16
Writing library                  : libebml v0.7.7 + libmatroska v0.8.1

Video
ID                               : 1
Format                           : AVC
Format/Info                      : Advanced Video Codec
Format profile                   : High@L4.1
Format settings, CABAC           : Yes
Format settings, ReFrames        : 5 frames
Format settings, GOP             : M=1, N=16
Muxing mode                      : Container profile=Unknown@4.1
Codec ID                         : V_MPEG4/ISO/AVC
Duration                         : 1h 48mn
Bit rate                         : 17.0 Mbps
Width                            : 1 920 pixels
Height                           : 800 pixels
Display aspect ratio             : 2.40:1
Frame rate                       : 23.976 fps
Color space                      : YUV
Chroma subsampling               : 4:2:0
Bit depth                        : 8 bits
Scan type                        : Progressive
Bits/(Pixel*Frame)               : 0.462
Stream size                      : 12.6 GiB (88%)
Title                            : Black.Swan.2010
Writing library                  : x264 core 107 r1766 f9f0035
Encoding settings                : cabac=1 / ref=5 / deblock=1:-3:-3 / analyse=0x3:0x113 / me=umh / subme=10 / psy=1 / psy_rd=1.05:0.10 / mixed_ref=1 / me_range=48 / chroma_me=1 / trellis=2 / 8x8dct=1 / cqm=2 / deadzone=21,11 / fast_pskip=0 / chroma_qp_offset=-2 / threads=12 / sliced_threads=0 / nr=0 / decimate=1 / interlaced=0 / constrained_intra=0 / bframes=6 / b_pyramid=2 / b_adapt=2 / b_bias=0 / direct=3 / weightb=1 / open_gop=0 / weightp=2 / keyint=250 / keyint_min=23 / scenecut=40 / intra_refresh=0 / rc_lookahead=50 / rc=2pass / mbtree=1 / bitrate=17025 / ratetol=1.0 / qcomp=0.70 / qpmin=10 / qpmax=51 / qpstep=4 / cplxblur=20.0 / qblur=0.5 / vbv_maxrate=40000 / vbv_bufsize=30000 / ip_ratio=1.40 / aq=1:0.80 / nal_hrd=none
Language                         : English

Audio #1
ID                               : 2
Format                           : AC-3
Format/Info                      : Audio Coding 3
Mode extension                   : CM (complete main)
Codec ID                         : A_AC3
Duration                         : 1h 48mn
Bit rate mode                    : Constant
Bit rate                         : 448 Kbps
Channel(s)                       : 6 channels
Channel positions                : Front: L C R, Side: L R, LFE
Sampling rate                    : 48.0 KHz
Bit depth                        : 16 bits
Stream size                      : 346 MiB (2%)
Title                            : DD5.1
Language                         : English

Audio #2
ID                               : 3
Format                           : DTS
Format/Info                      : Digital Theater Systems
Codec ID                         : A_DTS
Duration                         : 1h 48mn
Bit rate mode                    : Constant
Bit rate                         : 1 510 Kbps
Channel(s)                       : 6 channels
Channel positions                : Front: L C R, Side: L R, LFE
Sampling rate                    : 48.0 KHz
Bit depth                        : 24 bits
Stream size                      : 1.14 GiB (8%)
Title                            : DTS 5.1
Language                         : English

Text
ID                               : 4
Format                           : UTF-8
Codec ID                         : S_TEXT/UTF8
Codec ID/Info                    : UTF-8 Plain Text
Title                            : Nederlands SRT
Language                         : Dutch



TBS

